<?xml version="1.0" encoding="utf-8"?>
<svg viewBox="0 0 48 48" xmlns="http://www.w3.org/2000/svg">
  <ellipse transform="matrix(-0.668966, 0.743292, -0.743297, -0.668962, 95.419452, -26.297253)" cx="83.09" cy="45.255" rx="4.991" ry="4.991" style="fill: rgb(153, 162, 170);"/>
  <ellipse transform="matrix(-0.668969, 0.74329, -0.743296, -0.668962, 131.477823, -26.30306)" cx="83.09" cy="45.255" rx="4.991" ry="4.991" style="fill: rgb(153, 162, 170);"/>
  <ellipse transform="matrix(-0.668971, 0.743288, -0.743297, -0.668962, 95.360891, 11.343805)" cx="83.09" cy="45.255" rx="4.991" ry="4.991" style="fill: rgb(153, 162, 170);"/>
  <ellipse transform="matrix(-0.668968, 0.74329, -0.743298, -0.668962, 131.498889, 11.412992)" cx="83.09" cy="45.255" rx="4.991" ry="4.991" style="fill: rgb(153, 162, 170);"/>
  <rect x="6.579" y="0.217" width="35.239" height="47.621" style="fill: rgb(153, 162, 170)"/>
  <rect x="1.245" y="4.925" width="46.023" height="38.206" style="fill: rgb(153, 162, 170)"/>
  <rect x="12" y="20" width="18" height="2" style="fill: rgb(253, 253, 253);"/>
  <rect x="32" y="20" width="3" height="2" style="fill: rgb(253, 253, 253);"/>
  <rect x="3" y="24" width="20" height="2" style="fill: rgb(253, 253, 253);"/>
  <rect x="25" y="24" width="13" height="2" style="fill: rgb(253, 253, 253);" />
  <rect x="40" y="24" width="4" height="2" style="fill: rgb(253, 253, 253);"/>
  <rect x="10" y="28" width="14" height="2" style="fill: rgb(253, 253, 253);"/>
  <rect x="26" y="28" width="6" height="2" style="fill: rgb(253, 253, 253);"/>
</svg>
